<svg width="17" height="17" viewBox="0 0 17 17" xmlns="http://www.w3.org/2000/svg"><path d="M10.904 8.5l5.598 5.598c.664.664.664 1.74 0 2.403a1.698 1.698 0 0 1-2.404 0c-.262-.26-5.598-5.597-5.598-5.597L2.902 16.5a1.698 1.698 0 0 1-2.404 0 1.698 1.698 0 0 1 0-2.403L6.096 8.5.498 2.902A1.698 1.698 0 0 1 .498.5a1.698 1.698 0 0 1 2.404 0C3.164.759 8.5 6.096 8.5 6.096L14.098.5a1.698 1.698 0 0 1 2.404 0c.664.664.664 1.74 0 2.403-.26.262-5.598 5.598-5.598 5.598z" fill="#FFF" fill-rule="evenodd"/></svg>