<svg width="147" height="24" viewBox="0 0 147 24" xmlns="http://www.w3.org/2000/svg"><g fill="none" fill-rule="evenodd"><path d="M0 23.702V.2h10.462c1.112 0 2.14.237 3.08.711a8.02 8.02 0 0 1 2.424 1.854 8.702 8.702 0 0 1 1.588 2.615 8.06 8.06 0 0 1 .578 2.963 8.583 8.583 0 0 1-.867 3.824 7.734 7.734 0 0 1-2.407 2.896l4.814 8.64h-7.06l-4.011-7.216H6.258v7.216H0zm6.258-12.844h3.947c.385 0 .744-.22 1.075-.662.332-.442.498-1.06.498-1.854 0-.816-.193-1.44-.578-1.87-.385-.43-.77-.646-1.155-.646H6.258v5.032zm30.712 7.216v5.628H20.73V.2h15.95v5.627h-9.692v3.31h8.28v5.23h-8.28v3.708h9.98zM52.759 7.88a17.295 17.295 0 0 0-1.99-1.06 17.841 17.841 0 0 0-1.941-.745 6.811 6.811 0 0 0-2.102-.347c-.557 0-1 .088-1.332.265-.332.176-.498.474-.498.894 0 .308.097.562.29.76.192.2.47.382.833.547.364.166.808.326 1.332.48a54.57 54.57 0 0 1 1.781.563 22.72 22.72 0 0 1 2.84 1.092c.846.398 1.568.866 2.167 1.407a5.411 5.411 0 0 1 1.38 1.97c.32.772.481 1.71.481 2.814 0 1.412-.251 2.598-.754 3.558s-1.166 1.727-1.99 2.3a8.273 8.273 0 0 1-2.792 1.242c-1.037.254-2.08.381-3.129.381-.834 0-1.69-.066-2.567-.199a22.4 22.4 0 0 1-5.119-1.423 15.8 15.8 0 0 1-2.23-1.126l2.696-5.66c.748.485 1.53.916 2.342 1.29.685.332 1.46.63 2.327.895a9.01 9.01 0 0 0 2.648.397c.684 0 1.16-.094 1.428-.282.267-.187.4-.435.4-.744a1.08 1.08 0 0 0-.4-.845c-.268-.231-.637-.435-1.108-.612-.47-.177-1.01-.353-1.62-.53a34.758 34.758 0 0 1-1.942-.629c-1.005-.353-1.872-.733-2.6-1.142-.727-.408-1.326-.871-1.796-1.39a4.998 4.998 0 0 1-1.043-1.771c-.225-.662-.337-1.423-.337-2.284 0-1.302.23-2.45.69-3.443A7.043 7.043 0 0 1 40.98 2.02 8.321 8.321 0 0 1 43.693.513 10.042 10.042 0 0 1 46.918 0c.834 0 1.647.083 2.439.248.792.166 1.556.375 2.295.63a21.4 21.4 0 0 1 2.07.827c.641.298 1.219.58 1.732.844l-2.695 5.33z" fill="#5DCE7C"/><path d="M67.483 24c-1.727 0-3.295-.344-4.702-1.033a11.663 11.663 0 0 1-3.614-2.717 12.39 12.39 0 0 1-2.335-3.85A12.363 12.363 0 0 1 56 11.933c0-1.555.288-3.055.864-4.5a12.002 12.002 0 0 1 2.415-3.816A11.773 11.773 0 0 1 62.957.983C64.375.328 65.927 0 67.61 0c1.727 0 3.294.344 4.702 1.033a11.55 11.55 0 0 1 3.614 2.734 12.353 12.353 0 0 1 2.32 3.866 12.51 12.51 0 0 1 .815 4.434c0 1.555-.288 3.05-.864 4.483a12.198 12.198 0 0 1-2.399 3.8A11.805 11.805 0 0 1 72.137 23c-1.418.667-2.97 1-4.654 1zm-5.15-12c0 .8.107 1.572.32 2.317.213.744.533 1.405.96 1.983a4.9 4.9 0 0 0 1.615 1.4c.65.356 1.423.533 2.319.533.896 0 1.674-.183 2.335-.55a4.786 4.786 0 0 0 1.615-1.433 6.283 6.283 0 0 0 .928-2.017 8.844 8.844 0 0 0 .304-2.3c0-.8-.107-1.572-.32-2.316a5.796 5.796 0 0 0-.976-1.967 4.97 4.97 0 0 0-1.631-1.367c-.65-.344-1.413-.516-2.287-.516-.896 0-1.669.177-2.319.533a4.823 4.823 0 0 0-1.615 1.417 6.112 6.112 0 0 0-.944 2A8.657 8.657 0 0 0 62.333 12zm28.372 6.233c.725 0 1.343-.166 1.855-.5a3.907 3.907 0 0 0 1.247-1.316 6.21 6.21 0 0 0 .704-1.884c.15-.71.224-1.455.224-2.233V.133h6.237V12.3c0 1.644-.202 3.183-.608 4.617-.405 1.433-1.034 2.672-1.887 3.716-.853 1.045-1.924 1.867-3.214 2.467-1.29.6-2.81.9-4.558.9-1.813 0-3.364-.317-4.654-.95s-2.351-1.483-3.183-2.55c-.831-1.067-1.44-2.306-1.823-3.717a17.014 17.014 0 0 1-.576-4.483V.133h6.238V12.3c0 .778.074 1.528.223 2.25.15.722.384 1.356.704 1.9.32.544.73.978 1.232 1.3.5.322 1.114.483 1.839.483zm19.16-6.066V23.8h-6.238V.133h4.862l9.116 12.034V.133h6.237V23.8h-4.958l-9.02-11.633zM126.816 23.8V.133h8.732c1.877 0 3.53.311 4.958.934 1.429.622 2.623 1.466 3.582 2.533.96 1.067 1.685 2.317 2.175 3.75.49 1.433.736 2.961.736 4.583 0 1.8-.272 3.428-.816 4.884-.543 1.455-1.316 2.7-2.319 3.733-1.002 1.033-2.207 1.833-3.614 2.4s-2.975.85-4.702.85h-8.732zm13.85-11.867c0-.91-.117-1.744-.352-2.5-.235-.755-.57-1.4-1.008-1.933a4.565 4.565 0 0 0-1.615-1.25c-.64-.3-1.354-.45-2.143-.45h-2.495v12.333h2.495c.81 0 1.535-.155 2.175-.466a4.574 4.574 0 0 0 1.615-1.3 5.814 5.814 0 0 0 .992-1.967 8.65 8.65 0 0 0 .336-2.467z" fill="#4B4A4A"/></g></svg>