<svg width="280" height="64" viewBox="0 0 280 64" xmlns="http://www.w3.org/2000/svg"><g fill="none" fill-rule="evenodd"><path d="M0 43.454V.364h19.803c2.106 0 4.05.435 5.831 1.305 1.782.87 3.311 2.003 4.587 3.399a15.87 15.87 0 0 1 3.007 4.794c.728 1.8 1.093 3.611 1.093 5.432 0 2.508-.547 4.845-1.64 7.01-1.094 2.164-2.612 3.934-4.556 5.31l9.112 15.84H23.873l-7.593-13.23h-4.435v13.23H0zm11.845-23.548h7.472c.729 0 1.407-.404 2.035-1.214.628-.809.941-1.942.941-3.398 0-1.497-.364-2.64-1.093-3.43-.729-.788-1.458-1.183-2.187-1.183h-7.168v9.225zm58.133 13.23v10.318H39.241V.364h30.19v10.317H51.088v6.07H66.76v9.588H51.087v6.798h18.891zm29.887-18.692a33.109 33.109 0 0 0-3.766-1.942 34.45 34.45 0 0 0-3.676-1.365c-1.356-.425-2.682-.638-3.978-.638-1.053 0-1.894.162-2.521.486-.628.324-.942.87-.942 1.638 0 .567.182 1.032.547 1.396.364.364.89.698 1.58 1.002.688.303 1.528.596 2.52.88.992.283 2.116.627 3.372 1.031 1.984.607 3.776 1.275 5.376 2.003 1.6.728 2.966 1.588 4.1 2.58a9.927 9.927 0 0 1 2.612 3.61c.607 1.417.911 3.136.911 5.16 0 2.589-.476 4.763-1.428 6.523-.951 1.76-2.207 3.166-3.766 4.218-1.559 1.052-3.32 1.81-5.285 2.276A25.61 25.61 0 0 1 89.6 44c-1.58 0-3.2-.121-4.86-.364a43.344 43.344 0 0 1-9.689-2.61 30.297 30.297 0 0 1-4.221-2.063l5.102-10.378a35.78 35.78 0 0 0 4.435 2.367c1.296.607 2.764 1.153 4.404 1.638 1.64.486 3.31.729 5.011.729 1.296 0 2.197-.172 2.703-.516.506-.344.76-.8.76-1.366 0-.607-.254-1.123-.76-1.547-.506-.425-1.205-.8-2.095-1.123a43.31 43.31 0 0 0-3.068-.971 67.331 67.331 0 0 1-3.675-1.153c-1.904-.648-3.544-1.346-4.92-2.094-1.377-.749-2.511-1.598-3.402-2.549a9.104 9.104 0 0 1-1.974-3.247c-.426-1.214-.638-2.61-.638-4.187 0-2.388.435-4.492 1.306-6.312.87-1.82 2.055-3.338 3.553-4.552 1.499-1.214 3.21-2.134 5.133-2.761C84.628.314 86.663 0 88.81 0c1.58 0 3.118.152 4.617.455 1.498.304 2.946.688 4.343 1.153 1.397.466 2.703.971 3.918 1.518a89.652 89.652 0 0 1 3.28 1.547l-5.102 9.771z" fill="#5DCE7C"/><path d="M127.956 44c-3.302 0-6.299-.631-8.99-1.894s-4.995-2.924-6.911-4.981a22.564 22.564 0 0 1-4.465-7.058 21.844 21.844 0 0 1-1.59-8.19c0-2.851.55-5.601 1.651-8.25a21.9 21.9 0 0 1 4.618-6.996c1.977-2.017 4.322-3.626 7.033-4.828C122.014.6 124.98 0 128.202 0c3.302 0 6.299.631 8.99 1.894 2.69 1.263 4.994 2.934 6.91 5.012a22.482 22.482 0 0 1 4.435 7.088c1.04 2.649 1.56 5.358 1.56 8.128 0 2.852-.551 5.592-1.652 8.22a22.259 22.259 0 0 1-4.587 6.966c-1.957 2.017-4.291 3.636-7.003 4.859-2.711 1.222-5.677 1.833-8.899 1.833zm-9.846-22c0 1.467.204 2.882.611 4.247.408 1.365 1.02 2.577 1.835 3.636.816 1.06 1.845 1.915 3.089 2.567 1.243.652 2.721.978 4.434.978 1.712 0 3.2-.336 4.464-1.009 1.264-.672 2.294-1.548 3.089-2.627.795-1.08 1.386-2.312 1.774-3.698.387-1.385.58-2.79.58-4.216 0-1.467-.203-2.883-.611-4.247-.408-1.365-1.03-2.567-1.865-3.606a9.418 9.418 0 0 0-3.12-2.506c-1.243-.631-2.7-.947-4.372-.947-1.713 0-3.19.326-4.435.978a9.115 9.115 0 0 0-3.088 2.597 11.008 11.008 0 0 0-1.804 3.667A15.259 15.259 0 0 0 118.11 22zm54.249 11.428c1.386 0 2.568-.306 3.547-.917a7.301 7.301 0 0 0 2.385-2.414c.612-.998 1.06-2.149 1.346-3.453.285-1.303.428-2.668.428-4.094V.244h11.926V22.55c0 3.015-.387 5.836-1.162 8.464-.775 2.628-1.978 4.899-3.609 6.814-1.63 1.915-3.68 3.422-6.146 4.522-2.467 1.1-5.372 1.65-8.715 1.65-3.466 0-6.432-.58-8.9-1.742-2.466-1.16-4.494-2.72-6.085-4.675-1.59-1.955-2.752-4.227-3.486-6.814-.734-2.587-1.1-5.326-1.1-8.219V.244h11.926V22.55c0 1.426.142 2.8.428 4.125.285 1.324.734 2.485 1.345 3.483a7.12 7.12 0 0 0 2.355 2.384c.958.59 2.13.886 3.517.886zm36.634-11.122v21.327h-11.926V.244h9.296l17.431 22.062V.244h11.926v43.39h-9.48l-17.247-21.328zm32.415 21.327V.244h16.697c3.588 0 6.748.57 9.48 1.712 2.731 1.14 5.015 2.688 6.85 4.644 1.834 1.956 3.22 4.247 4.158 6.875.938 2.628 1.407 5.429 1.407 8.403 0 3.3-.52 6.284-1.56 8.953-1.04 2.668-2.517 4.95-4.434 6.844-1.916 1.894-4.22 3.361-6.91 4.4-2.692 1.039-5.689 1.558-8.991 1.558h-16.697zm26.482-21.755c0-1.67-.224-3.198-.672-4.584-.449-1.385-1.091-2.566-1.927-3.544a8.69 8.69 0 0 0-3.089-2.292c-1.223-.55-2.589-.825-4.097-.825h-4.77v22.611h4.77c1.55 0 2.935-.285 4.159-.855a8.688 8.688 0 0 0 3.088-2.383c.836-1.019 1.468-2.22 1.896-3.606.428-1.385.642-2.893.642-4.522zM7.172 63.144v.703H0V53h7.035v.703H.773v4.262h5.474v.672H.773v4.507h6.399zm3.396.703l-3.29-7.944h.788l2.912 7.18 2.926-7.18h.743l-3.29 7.944h-.789zm8.218.153a3.65 3.65 0 0 1-1.546-.328 3.822 3.822 0 0 1-1.236-.902 4.262 4.262 0 0 1-.819-1.321 4.327 4.327 0 0 1-.295-1.605 4.227 4.227 0 0 1 1.106-2.88 3.77 3.77 0 0 1 1.221-.878c.47-.214.978-.32 1.524-.32.556 0 1.071.109 1.546.328a3.85 3.85 0 0 1 1.229.886c.343.372.611.804.803 1.298.192.494.288 1.016.288 1.566v.191a.415.415 0 0 1-.015.146h-6.914a3.628 3.628 0 0 0 1.008 2.292c.278.284.6.508.963.671.364.163.753.245 1.168.245.273 0 .54-.038.803-.115.263-.076.508-.18.736-.313.227-.132.43-.293.606-.481.177-.189.316-.395.417-.619l.667.183a2.535 2.535 0 0 1-.493.787c-.217.24-.47.446-.758.619a3.86 3.86 0 0 1-.947.405 3.898 3.898 0 0 1-1.062.145zm3.093-4.43a3.624 3.624 0 0 0-.31-1.284 3.427 3.427 0 0 0-.683-1 3.06 3.06 0 0 0-.963-.658 2.902 2.902 0 0 0-1.167-.236 2.92 2.92 0 0 0-1.168.236 3.06 3.06 0 0 0-.962.657c-.278.28-.5.617-.668 1.009a3.891 3.891 0 0 0-.295 1.275h6.216zm8.4 4.277h-.758v-4.43c0-1.029-.144-1.778-.432-2.246-.288-.469-.745-.703-1.372-.703a2.83 2.83 0 0 0-.993.183 3.357 3.357 0 0 0-.918.52c-.283.224-.53.486-.742.787a3.25 3.25 0 0 0-.47.97v4.92h-.759v-7.945h.713v1.894a3.738 3.738 0 0 1 1.403-1.474c.298-.178.614-.316.947-.413a3.682 3.682 0 0 1 1.031-.145c.86 0 1.466.303 1.82.91.354.605.53 1.474.53 2.604v4.568zm5.292-.382c-.04.02-.109.059-.205.115-.096.056-.217.11-.363.16a4.51 4.51 0 0 1-.493.138c-.182.04-.38.06-.592.06a1.95 1.95 0 0 1-.599-.09 1.42 1.42 0 0 1-.492-.276 1.311 1.311 0 0 1-.455-1.054V56.53h-1.107v-.626h1.107v-2.72h.758v2.72h1.835v.626H33.13v5.806c0 .295.101.517.303.664.202.148.43.222.683.222a1.9 1.9 0 0 0 .81-.16c.228-.108.367-.176.418-.207l.227.611zm3.397.535a5.028 5.028 0 0 1-1.744-.306 4.027 4.027 0 0 1-1.456-.916l.38-.52a4.42 4.42 0 0 0 1.318.856 3.98 3.98 0 0 0 1.502.275c.687 0 1.24-.145 1.66-.436.42-.29.629-.695.629-1.214 0-.245-.053-.45-.16-.619a1.277 1.277 0 0 0-.477-.428 3.924 3.924 0 0 0-.788-.313 26.253 26.253 0 0 0-1.092-.29 16.122 16.122 0 0 1-1.16-.306 3.106 3.106 0 0 1-.811-.366 1.41 1.41 0 0 1-.478-.52c-.106-.203-.159-.463-.159-.779 0-.397.076-.743.228-1.039.151-.295.36-.54.629-.733.268-.194.576-.339.925-.436.348-.096.72-.145 1.114-.145.617 0 1.163.105 1.638.313.475.21.844.477 1.107.803l-.425.412a2.404 2.404 0 0 0-1.023-.687 3.89 3.89 0 0 0-1.342-.23c-.293 0-.569.03-.827.092a1.981 1.981 0 0 0-.674.29 1.426 1.426 0 0 0-.455.512 1.555 1.555 0 0 0-.167.741c0 .234.038.423.114.565a.969.969 0 0 0 .364.367c.166.102.381.191.644.267.263.077.576.16.94.252.495.123.935.24 1.32.352.383.112.704.25.962.412.258.163.455.357.591.58.137.225.205.51.205.857 0 .712-.275 1.28-.826 1.703-.551.423-1.287.634-2.206.634z" fill="#FFF"/><path fill="#5DCE7C" d="M58 57.352v1.296h-3.811V63H52.84v-4.352H49v-1.296h3.84V53h1.349v4.352z"/><path d="M77.687 63.851v-9.127l-4.218 7.12h-.482l-4.219-7.12v9.127H68V53.297h.768l4.46 7.552 4.459-7.552h.768v10.554h-.768zM83.02 64c-1.667 0-2.5-1.14-2.5-3.419v-4.46h.752v4.356c0 1.903.658 2.854 1.974 2.854.331 0 .653-.057.964-.17a3.347 3.347 0 0 0 1.59-1.211 3.72 3.72 0 0 0 .49-.953v-4.875h.752v6.689c0 .248.106.371.317.371v.67a.707.707 0 0 1-.136.014h-.09a.834.834 0 0 1-.535-.186.604.604 0 0 1-.234-.498v-1.159a3.701 3.701 0 0 1-1.408 1.457 3.79 3.79 0 0 1-1.936.52zm8.467 0c-.603 0-1.18-.1-1.733-.297a4.014 4.014 0 0 1-1.446-.892l.376-.506c.422.377.86.654 1.311.833.452.178.95.267 1.492.267.683 0 1.232-.14 1.65-.423a1.35 1.35 0 0 0 .624-1.182c0-.238-.052-.439-.158-.602a1.26 1.26 0 0 0-.474-.416 3.947 3.947 0 0 0-.784-.305c-.311-.09-.673-.183-1.084-.282-.442-.1-.826-.199-1.153-.298a3.118 3.118 0 0 1-.806-.356 1.383 1.383 0 0 1-.474-.506c-.106-.198-.159-.45-.159-.758 0-.386.076-.723.226-1.01a2 2 0 0 1 .626-.714c.266-.189.572-.33.919-.424a4.207 4.207 0 0 1 1.107-.141c.612 0 1.155.101 1.627.305.472.203.838.463 1.1.78l-.422.401c-.261-.297-.6-.52-1.017-.669a3.94 3.94 0 0 0-1.333-.223c-.292 0-.565.03-.821.09a1.99 1.99 0 0 0-.67.282 1.398 1.398 0 0 0-.453.498 1.49 1.49 0 0 0-.165.721c0 .228.037.411.112.55a.952.952 0 0 0 .362.357c.166.099.38.186.64.26.261.074.573.156.934.245.492.12.93.233 1.311.342.382.109.7.243.957.401.256.159.452.347.587.565.136.218.204.496.204.833 0 .693-.274 1.246-.821 1.657-.548.411-1.278.617-2.192.617zm4.323-.149v-7.73h.754v7.73h-.754zm0-9.483V53h.754v1.368h-.754zm2.14 5.589c0-.545.095-1.06.286-1.546.19-.486.457-.907.798-1.264a3.779 3.779 0 0 1 2.772-1.16c.713 0 1.341.16 1.883.477a3 3 0 0 1 1.22 1.322l-.738.238a2.512 2.512 0 0 0-.986-1.003 2.8 2.8 0 0 0-1.409-.364c-.432 0-.834.084-1.205.252a3.008 3.008 0 0 0-.972.7 3.354 3.354 0 0 0-.655 1.047c-.16.401-.241.835-.241 1.3 0 .467.083.905.248 1.316.166.412.387.768.663 1.07.276.303.603.543.98.722a2.81 2.81 0 0 0 2.004.149c.265-.08.511-.184.737-.313.226-.129.422-.28.588-.453.166-.174.279-.355.339-.543l.738.208c-.1.268-.254.518-.46.75a3.051 3.051 0 0 1-.73.603 3.95 3.95 0 0 1-1.989.535 3.691 3.691 0 0 1-1.536-.32 3.795 3.795 0 0 1-1.228-.877 4.135 4.135 0 0 1-1.107-2.846z" fill="#FFF"/></g></svg>