<?xml version="1.0" encoding="UTF-8"?>
<svg width="17px" height="17px" viewBox="0 0 17 17" version="1.1" xmlns="http://www.w3.org/2000/svg" xmlns:xlink="http://www.w3.org/1999/xlink">
    <!-- Generator: Sketch 48.2 (47327) - http://www.bohemiancoding.com/sketch -->
    <title>Path</title>
    <desc>Created with Sketch.</desc>
    <defs></defs>
    <g id="Add-Event---Mobile" stroke="none" stroke-width="1" fill="none" fill-rule="evenodd" transform="translate(-283.000000, -20.000000)">
        <g id="header" fill="#FFFFFF">
            <path d="M293.90368,28.5 C293.90368,28.5 299.239713,33.8360332 299.5015,34.0978201 C300.166167,34.7624869 300.166167,35.8385331 299.5015,36.5014999 C298.836833,37.1661667 297.760787,37.1661667 297.09782,36.5014999 C296.836033,36.2414129 291.5,30.9036798 291.5,30.9036798 C291.5,30.9036798 286.163967,36.239713 285.90218,36.5014999 C285.237513,37.1661667 284.161467,37.1661667 283.4985,36.5014999 C282.833833,35.8368332 282.833833,34.760787 283.4985,34.0978201 C283.758587,33.8360332 289.09632,28.5 289.09632,28.5 C289.09632,28.5 283.760287,23.1639668 283.4985,22.9021799 C282.833833,22.2375131 282.833833,21.1614669 283.4985,20.4985001 C284.163167,19.8338333 285.239213,19.8338333 285.90218,20.4985001 C286.163967,20.7585871 291.5,26.0963202 291.5,26.0963202 C291.5,26.0963202 296.836033,20.760287 297.09782,20.4985001 C297.762487,19.8338333 298.838533,19.8338333 299.5015,20.4985001 C300.166167,21.1631668 300.166167,22.239213 299.5015,22.9021799 C299.241413,23.1639668 293.90368,28.5 293.90368,28.5 Z" id="Path"></path>
        </g>
    </g>
</svg>