<?xml version="1.0" encoding="UTF-8"?>
<svg width="147px" height="24px" viewBox="0 0 147 24" version="1.1" xmlns="http://www.w3.org/2000/svg" xmlns:xlink="http://www.w3.org/1999/xlink">
    <!-- Generator: Sketch 48.2 (47327) - http://www.bohemiancoding.com/sketch -->
    <title>logo green/grey</title>
    <desc>Created with Sketch.</desc>
    <defs></defs>
    <g id="Home---Mobile" stroke="none" stroke-width="1" fill="none" fill-rule="evenodd" transform="translate(-20.000000, -18.000000)">
        <g id="header">
            <g id="logo-green/grey" transform="translate(20.000000, 18.000000)">
                <path d="M0,23.702069 L0,0.19862069 L10.4618908,0.19862069 C11.5744082,0.19862069 12.601332,0.435859697 13.542693,0.910344828 C14.4840539,1.38482996 15.2916867,2.00275481 15.9656155,2.76413793 C16.6395444,3.52552105 17.1690519,4.39723647 17.5541541,5.37931034 C17.9392563,6.36138422 18.1318046,7.34896055 18.1318046,8.34206897 C18.1318046,9.71035167 17.8429822,10.9848217 17.2653289,12.1655172 C16.6876756,13.3462128 15.8853914,14.3117204 14.8584522,15.062069 L19.6722057,23.702069 L12.612034,23.702069 L8.60057278,16.4855172 L6.25787945,16.4855172 L6.25787945,23.702069 L0,23.702069 Z M6.25787945,10.857931 L10.2051573,10.857931 C10.5902595,10.857931 10.9486131,10.6372436 11.2802289,10.1958621 C11.6118446,9.75448055 11.77765,9.1365557 11.77765,8.34206897 C11.77765,7.52551316 11.5851018,6.90207112 11.1999996,6.47172414 C10.8148974,6.04137716 10.429801,5.8262069 10.0446988,5.8262069 L6.25787945,5.8262069 L6.25787945,10.857931 Z M36.9696272,18.0744828 L36.9696272,23.702069 L20.7312323,23.702069 L20.7312323,0.19862069 L36.680802,0.19862069 L36.680802,5.8262069 L26.9891118,5.8262069 L26.9891118,9.13655172 L35.2687677,9.13655172 L35.2687677,14.3668966 L26.9891118,14.3668966 L26.9891118,18.0744828 L36.9696272,18.0744828 Z M52.7587394,7.87862069 C52.1169024,7.48137732 51.4536807,7.12827741 50.7690546,6.81931034 C50.1914013,6.55448143 49.5442254,6.30620806 48.8275074,6.07448276 C48.1107894,5.84275746 47.4101279,5.72689655 46.7255017,5.72689655 C46.169243,5.72689655 45.7253124,5.81517153 45.3936966,5.99172414 C45.0620808,6.16827674 44.8962754,6.4662048 44.8962754,6.88551724 C44.8962754,7.1944843 44.9925495,7.44827487 45.1851006,7.64689655 C45.3776517,7.84551823 45.6557769,8.02758538 46.0194846,8.19310345 C46.3831922,8.35862152 46.8271228,8.51861992 47.3512897,8.67310345 C47.8754566,8.82758698 48.4691469,9.01517131 49.1323784,9.23586207 C50.1807122,9.56689821 51.1274076,9.9310325 51.972493,10.3282759 C52.8175784,10.7255192 53.5396341,11.1944801 54.138682,11.7351724 C54.7377299,12.2758648 55.1977062,12.9324099 55.5186247,13.7048276 C55.8395432,14.4772452 56,15.4151669 56,16.5186207 C56,17.9310415 55.7486176,19.1172366 55.2458453,20.0772414 C54.743073,21.0372462 54.0798514,21.8041351 53.2561605,22.377931 C52.4324697,22.951727 51.50182,23.365516 50.4641836,23.6193103 C49.4265471,23.8731047 48.3835776,24 47.3352438,24 C46.5008557,24 45.6450859,23.9337938 44.7679087,23.8013793 C43.8907314,23.6689649 43.0189159,23.4813805 42.152436,23.2386207 C41.285956,22.9958609 40.4515805,22.7089672 39.6492842,22.377931 C38.846988,22.0468949 38.1035379,21.6717262 37.4189118,21.2524138 L40.1146137,15.5917241 C40.8634235,16.0772438 41.6443135,16.5075843 42.457307,16.8827586 C43.1419332,17.2137948 43.9174746,17.5117228 44.7839545,17.7765517 C45.6504345,18.0413806 46.5329471,18.1737931 47.4315189,18.1737931 C48.116145,18.1737931 48.592167,18.0800009 48.8595991,17.8924138 C49.1270312,17.7048266 49.2607452,17.4565533 49.2607452,17.1475862 C49.2607452,16.8165501 49.1270312,16.5351736 48.8595991,16.3034483 C48.592167,16.071723 48.2231163,15.8675871 47.7524358,15.6910345 C47.2817553,15.5144819 46.7415506,15.3379319 46.1318055,15.1613793 C45.5220603,14.9848267 44.8748844,14.7751736 44.1902583,14.5324138 C43.1847136,14.1793086 42.3182467,13.7986227 41.5908314,13.3903448 C40.8634162,12.9820669 40.2643773,12.5186233 39.7936968,12 C39.3230163,11.4813767 38.9753599,10.8910378 38.7507169,10.2289655 C38.526074,9.56689324 38.4137542,8.80552154 38.4137542,7.94482759 C38.4137542,6.64275211 38.6437423,5.49517738 39.1037255,4.50206897 C39.5637087,3.50896055 40.1894904,2.68138262 40.9810893,2.01931034 C41.7726883,1.35723807 42.6765952,0.855174124 43.6928371,0.513103448 C44.709079,0.171032772 45.7841398,0 46.9180519,0 C47.75244,0 48.5654213,0.0827577931 49.3570203,0.248275862 C50.1486192,0.413793931 50.9134635,0.623447007 51.6515761,0.877241379 C52.3896886,1.13103575 53.079653,1.40689506 53.72149,1.70482759 C54.363327,2.00276011 54.9409717,2.28413661 55.4544413,2.54896552 L52.7587394,7.87862069 Z" id="Res" fill="#5DCE7C"></path>
                <path d="M67.4829522,24 C65.7557028,24 64.1884075,23.655559 62.7810191,22.9666667 C61.3736308,22.2777743 60.1688391,21.3722278 59.166608,20.25 C58.1643769,19.1277722 57.3860601,17.8444517 56.8316344,16.4 C56.2772087,14.9555483 56,13.4666743 56,11.9333333 C56,10.37777 56.2878706,8.877785 56.8636204,7.43333333 C57.4393701,5.98888167 58.2443416,4.71667217 59.2785588,3.61666667 C60.312776,2.51666117 61.5388914,1.63889217 62.9569418,0.983333333 C64.3749922,0.3277745 65.9262947,0 67.610896,0 C69.3381453,0 70.9054407,0.344441 72.312829,1.03333333 C73.7202174,1.72222567 74.9250091,2.63332767 75.9272402,3.76666667 C76.9294713,4.90000567 77.7024571,6.18888167 78.2462208,7.63333333 C78.7899845,9.077785 79.0618622,10.555548 79.0618622,12.0666667 C79.0618622,13.62223 78.7739916,15.1166595 78.1982419,16.55 C77.6224921,17.9833405 76.8228516,19.2499945 75.7992964,20.35 C74.7757412,21.4500055 73.5549568,22.33333 72.1369064,23 C70.718856,23.66667 69.1675534,24 67.4829522,24 Z M62.333216,12 C62.333216,12.800004 62.4398347,13.5722185 62.6530754,14.3166667 C62.866316,15.0611148 63.1861722,15.7222193 63.6126535,16.3 C64.0391349,16.8777807 64.5775595,17.3444427 65.2279435,17.7 C65.8783275,18.0555573 66.6513133,18.2333333 67.5469241,18.2333333 C68.4425349,18.2333333 69.2208516,18.0500018 69.8818976,17.6833333 C70.5429437,17.3166648 71.0813683,16.8388918 71.4971876,16.25 C71.9130069,15.6611082 72.2222012,14.9888927 72.4247798,14.2333333 C72.6273584,13.477774 72.7286462,12.711115 72.7286462,11.9333333 C72.7286462,11.1333293 72.6220275,10.3611148 72.4087868,9.61666667 C72.1955462,8.8722185 71.8703591,8.2166695 71.4332157,7.65 C70.9960723,7.0833305 70.4523168,6.6277795 69.8019328,6.28333333 C69.1515488,5.93888717 68.3892249,5.76666667 67.5149381,5.76666667 C66.6193274,5.76666667 65.8463416,5.94444267 65.1959575,6.3 C64.5455735,6.65555733 64.0071489,7.12777483 63.5806676,7.71666667 C63.1541863,8.3055585 62.839661,8.9722185 62.6370824,9.71666667 C62.4345038,10.4611148 62.333216,11.2222183 62.333216,12 Z M90.704745,18.2333333 C91.4297633,18.2333333 92.0481519,18.0666683 92.5599295,17.7333333 C93.0717071,17.3999983 93.4875202,16.9611138 93.8073811,16.4166667 C94.1272421,15.8722195 94.3618033,15.244448 94.5110718,14.5333333 C94.6603403,13.8222187 94.7349734,13.0777817 94.7349734,12.3 L94.7349734,0.133333333 L100.972232,0.133333333 L100.972232,12.3 C100.972232,13.9444527 100.769656,15.4833262 100.364499,16.9166667 C99.9593414,18.3500072 99.3302909,19.5888837 98.4773283,20.6333333 C97.6243656,21.677783 96.5528474,22.499997 95.2627414,23.1 C93.9726354,23.700003 92.4533185,24 90.704745,24 C88.8921994,24 87.3408969,23.6833365 86.0507909,23.05 C84.7606849,22.4166635 83.6998285,21.566672 82.8681899,20.5 C82.0365513,19.433328 81.4288246,18.1944515 81.0449914,16.7833333 C80.6611582,15.3722152 80.4692445,13.8777857 80.4692445,12.3 L80.4692445,0.133333333 L86.7065026,0.133333333 L86.7065026,12.3 C86.7065026,13.0777817 86.7811357,13.8277742 86.9304042,14.55 C87.0796727,15.2722258 87.3142339,15.9055528 87.6340949,16.45 C87.9539559,16.9944472 88.364438,17.4277762 88.8655535,17.75 C89.3666691,18.0722238 89.9797268,18.2333333 90.704745,18.2333333 Z M109.864324,12.1666667 L109.864324,23.8 L103.627065,23.8 L103.627065,0.133333333 L108.488928,0.133333333 L117.604921,12.1666667 L117.604921,0.133333333 L123.842179,0.133333333 L123.842179,23.8 L118.884358,23.8 L109.864324,12.1666667 Z M126.816872,23.8 L126.816872,0.133333333 L135.549034,0.133333333 C137.425552,0.133333333 139.078142,0.444441333 140.506854,1.06666667 C141.935567,1.688892 143.129697,2.533328 144.08928,3.6 C145.048863,4.666672 145.77387,5.9166595 146.264323,7.35 C146.754777,8.7833405 147,10.311103 147,11.9333333 C147,13.7333423 146.728122,15.3611038 146.184359,16.8166667 C145.640595,18.2722295 144.867609,19.5166615 143.865378,20.55 C142.863147,21.5833385 141.658355,22.3833305 140.250967,22.95 C138.843578,23.5166695 137.276283,23.8 135.549034,23.8 L126.816872,23.8 Z M140.666784,11.9333333 C140.666784,11.0222177 140.549503,10.1888927 140.314939,9.43333333 C140.080374,8.677774 139.744525,8.033336 139.307382,7.5 C138.870238,6.966664 138.331814,6.5500015 137.692092,6.25 C137.05237,5.9499985 136.338024,5.8 135.549034,5.8 L133.05413,5.8 L133.05413,18.1333333 L135.549034,18.1333333 C136.359348,18.1333333 137.084356,17.9777793 137.724078,17.6666667 C138.3638,17.355554 138.902224,16.922225 139.339368,16.3666667 C139.776511,15.8111083 140.107029,15.1555593 140.330932,14.4 C140.554834,13.6444407 140.666784,12.8222267 140.666784,11.9333333 Z" id="ound" fill="#4B4A4A"></path>
            </g>
        </g>
    </g>
</svg>