<?xml version="1.0" encoding="UTF-8"?>
<svg width="280px" height="64px" viewBox="0 0 280 64" version="1.1" xmlns="http://www.w3.org/2000/svg" xmlns:xlink="http://www.w3.org/1999/xlink">
    <!-- Generator: Sketch 48.2 (47327) - http://www.bohemiancoding.com/sketch -->
    <title>logo green/white copy 2</title>
    <desc>Created with Sketch.</desc>
    <defs></defs>
    <g id="Log-in---Mobile-2" stroke="none" stroke-width="1" fill="none" fill-rule="evenodd" transform="translate(-20.000000, -54.000000)">
        <g id="logo-green/white-copy-2" transform="translate(20.000000, 54.000000)">
            <path d="M0,43.4537931 L0,0.364137931 L19.8028647,0.364137931 C21.9087013,0.364137931 23.8525213,0.79907611 25.6343831,1.66896552 C27.4162449,2.53885492 28.9449783,3.67171716 30.2206294,5.06758621 C31.4962804,6.46345526 32.4985626,8.06160019 33.2275061,9.86206897 C33.9564495,11.6625377 34.3209158,13.4730943 34.3209158,15.2937931 C34.3209158,17.8023114 33.7742164,20.1388398 32.6808012,22.3034483 C31.587386,24.4680568 30.0687766,26.238154 28.1249274,27.6137931 L37.236675,43.4537931 L23.8727786,43.4537931 L16.2796556,30.2234483 L11.8452718,30.2234483 L11.8452718,43.4537931 L0,43.4537931 Z M11.8452718,19.9062069 L19.3169048,19.9062069 C20.0458483,19.9062069 20.7241605,19.5016132 21.3518618,18.6924138 C21.9795631,17.8832143 22.293409,16.7503521 22.293409,15.2937931 C22.293409,13.7967741 21.9289427,12.653797 21.1999993,11.8648276 C20.4710559,11.0758581 19.7421233,10.6813793 19.0131799,10.6813793 L11.8452718,10.6813793 L11.8452718,19.9062069 Z M69.9782229,33.1365517 L69.9782229,43.4537931 L39.2412612,43.4537931 L39.2412612,0.364137931 L69.4315181,0.364137931 L69.4315181,10.6813793 L51.086533,10.6813793 L51.086533,16.7503448 L66.7587388,16.7503448 L66.7587388,26.3393103 L51.086533,26.3393103 L51.086533,33.1365517 L69.9782229,33.1365517 Z M99.8647566,14.4441379 C98.6498509,13.7158584 97.3944671,13.0685086 96.0985677,12.502069 C95.0051525,12.0165493 93.7801409,11.5613814 92.4234961,11.1365517 C91.0668514,10.711722 89.7405992,10.4993103 88.4446997,10.4993103 C87.3917814,10.4993103 86.5514842,10.6611478 85.9237829,10.9848276 C85.2960816,11.3085074 84.9822357,11.8547088 84.9822357,12.6234483 C84.9822357,13.1898879 85.1644688,13.6551706 85.5289405,14.0193103 C85.8934122,14.3834501 86.4198635,14.7172399 87.1083101,15.0206897 C87.7967567,15.3241394 88.6370539,15.6174698 89.6292269,15.9006897 C90.6213999,16.1839095 91.7451709,16.5278141 93.0005735,16.9324138 C94.9849195,17.5393134 96.7768786,18.2068929 98.3765045,18.9351724 C99.9761305,19.6634519 101.342879,20.5232134 102.476791,21.5144828 C103.610703,22.5057521 104.481372,23.7094182 105.088825,25.1255172 C105.696278,26.5416163 106,28.2611393 106,30.2841379 C106,32.8735762 105.524169,35.0482671 104.572493,36.8082759 C103.620817,38.5682847 102.365433,39.9742476 100.806304,41.0262069 C99.2471749,42.0781662 97.4855879,42.8367793 95.5214903,43.302069 C93.5573927,43.7673586 91.5832005,44 89.5988544,44 C88.0194769,44 86.3996269,43.8786219 84.7392557,43.6358621 C83.0788845,43.3931022 81.4286623,43.0491976 79.7885395,42.6041379 C78.1484168,42.1590782 76.569063,41.6331065 75.0504308,41.0262069 C73.5317986,40.4193073 72.1245539,39.7314981 70.8286545,38.9627586 L75.9312331,28.5848276 C77.3486231,29.474947 78.8267363,30.2639046 80.3656169,30.9517241 C81.6615164,31.5586237 83.1295054,32.1048252 84.7696282,32.5903448 C86.409751,33.0758645 88.0802213,33.3186207 89.7810894,33.3186207 C91.0769888,33.3186207 91.9780304,33.1466684 92.4842411,32.8027586 C92.9904519,32.4588489 93.2435534,32.003681 93.2435534,31.4372414 C93.2435534,30.8303418 92.9904519,30.3144849 92.4842411,29.8896552 C91.9780304,29.4648255 91.2794701,29.0905763 90.3885392,28.7668966 C89.4976083,28.4432168 88.475078,28.1195418 87.3209175,27.7958621 C86.1667571,27.4721823 84.9417455,27.0878183 83.645846,26.6427586 C81.7424937,25.9953991 80.1023955,25.297475 78.7255023,24.5489655 C77.3486092,23.800456 76.2147141,22.9508094 75.3237832,22 C74.4328524,21.0491906 73.7747883,19.9669026 73.3495713,18.7531034 C72.9243543,17.5393043 72.7117489,16.1434562 72.7117489,14.5655172 C72.7117489,12.1783789 73.1470836,10.0744919 74.0177661,8.2537931 C74.8884486,6.43309434 76.0729639,4.91586814 77.5713476,3.70206897 C79.0697314,2.48826979 80.780698,1.56781923 82.7042988,0.940689655 C84.6278995,0.313560083 86.6628361,0 88.8091696,0 C90.3885471,0 91.9274046,0.151722621 93.4257884,0.455172414 C94.9241721,0.758622207 96.3719131,1.14298618 97.7690547,1.60827586 C99.1661963,2.07356554 100.4722,2.57930761 101.687106,3.12551724 C102.902012,3.67172687 103.995411,4.18758378 104.967335,4.67310345 L99.8647566,14.4441379 Z" id="Res" fill="#5DCE7C"></path>
            <path d="M127.956414,44 C124.653761,44 121.656955,43.3685248 118.965905,42.1055556 C116.274854,40.8425863 113.971187,39.1824177 112.054833,37.125 C110.138479,35.0675823 108.650269,32.7148281 107.590158,30.0666667 C106.530047,27.4185053 106,24.6889029 106,21.8777778 C106,19.0259117 106.550434,16.2759392 107.651318,13.6277778 C108.752202,10.9796164 110.291378,8.64723231 112.268893,6.63055556 C114.246407,4.61387881 116.590847,3.00463564 119.302284,1.80277778 C122.013721,0.600919917 124.979948,0 128.201054,0 C131.503706,0 134.500513,0.631475167 137.191563,1.89444444 C139.882613,3.15741372 142.186281,4.82776739 144.102635,6.90555556 C146.018989,8.98334372 147.497006,11.3462831 148.53673,13.9944444 C149.576454,16.6426058 150.096308,19.351838 150.096308,22.1222222 C150.096308,24.9740883 149.545874,27.7138758 148.44499,30.3416667 C147.344106,32.9694576 145.815123,35.2916566 143.857995,37.3083333 C141.900868,39.3250101 139.566621,40.9444383 136.855184,42.1666667 C134.143747,43.388895 131.17752,44 127.956414,44 Z M118.109666,22 C118.109666,23.466674 118.31353,24.8824006 118.721265,26.2472222 C119.129,27.6120439 119.740593,28.8240688 120.556063,29.8833333 C121.371533,30.9425979 122.401048,31.7981449 123.644639,32.45 C124.888231,33.1018551 126.366247,33.4277778 128.078734,33.4277778 C129.79122,33.4277778 131.279431,33.09167 132.543409,32.4194444 C133.807387,31.7472189 134.836902,30.8713017 135.631985,29.7916667 C136.427068,28.7120316 137.018275,27.4796366 137.405623,26.0944444 C137.792971,24.7092523 137.986642,23.3037108 137.986642,21.8777778 C137.986642,20.4111038 137.782778,18.9953772 137.375043,17.6305556 C136.967308,16.2657339 136.345522,15.0638941 135.509665,14.025 C134.673809,12.9861059 133.6341,12.1509291 132.390509,11.5194444 C131.146917,10.8879598 129.689287,10.5722222 128.017574,10.5722222 C126.305087,10.5722222 124.827071,10.8981449 123.583479,11.55 C122.339888,12.2018551 121.310373,13.0675872 120.494903,14.1472222 C119.679433,15.2268572 119.078033,16.4490672 118.690685,17.8138889 C118.303337,19.1787105 118.109666,20.5740669 118.109666,22 Z M172.358523,33.4277778 C173.744822,33.4277778 174.927236,33.1222253 175.905799,32.5111111 C176.884363,31.8999969 177.679434,31.0953754 178.291036,30.0972222 C178.902639,29.0990691 179.35114,27.9481547 179.636555,26.6444444 C179.921969,25.3407342 180.064674,23.9759331 180.064674,22.55 L180.064674,0.244444444 L191.99086,0.244444444 L191.99086,22.55 C191.99086,25.5648299 191.603518,28.386098 190.828822,31.0138889 C190.054125,33.6416798 188.851326,35.9129534 187.220386,37.8277778 C185.589446,39.7426022 183.540609,41.2499945 181.073813,42.35 C178.607017,43.4500055 175.70195,44 172.358523,44 C168.892777,44 165.92655,43.4194503 163.459754,42.2583333 C160.992958,41.0972164 158.964507,39.5388987 157.374341,37.5833333 C155.784175,35.627768 154.622148,33.3564944 153.888225,30.7694444 C153.154302,28.1823945 152.787347,25.4426071 152.787347,22.55 L152.787347,0.244444444 L164.713532,0.244444444 L164.713532,22.55 C164.713532,23.9759331 164.856238,25.3509193 165.141652,26.675 C165.427066,27.9990807 165.875568,29.1601802 166.48717,30.1583333 C167.098773,31.1564865 167.883651,31.950923 168.841828,32.5416667 C169.800005,33.1324104 170.972225,33.4277778 172.358523,33.4277778 Z M208.993322,22.3055556 L208.993322,43.6333333 L197.067136,43.6333333 L197.067136,0.244444444 L206.363445,0.244444444 L223.794025,22.3055556 L223.794025,0.244444444 L235.72021,0.244444444 L235.72021,43.6333333 L226.240422,43.6333333 L208.993322,22.3055556 Z M241.408086,43.6333333 L241.408086,0.244444444 L258.104746,0.244444444 C261.692813,0.244444444 264.852711,0.814809111 267.584535,1.95555556 C270.316358,3.096302 272.59964,4.64443467 274.434447,6.6 C276.269254,8.55556533 277.655531,10.8472091 278.593322,13.475 C279.531112,16.1027909 280,18.9036888 280,21.8777778 C280,25.1777943 279.480146,28.1620237 278.440422,30.8305556 C277.400698,33.4990874 275.922681,35.7805461 274.006327,37.675 C272.089973,39.5694539 269.786306,41.0361059 267.095255,42.075 C264.404205,43.1138941 261.407398,43.6333333 258.104746,43.6333333 L241.408086,43.6333333 Z M267.890334,21.8777778 C267.890334,20.2073991 267.666083,18.6796366 267.217575,17.2944444 C266.769067,15.9092523 266.126894,14.7277827 265.291037,13.75 C264.455181,12.7722173 263.425666,12.0083361 262.202461,11.4583333 C260.979256,10.9083306 259.613365,10.6333333 258.104746,10.6333333 L253.334271,10.6333333 L253.334271,33.2444444 L258.104746,33.2444444 C259.654138,33.2444444 261.040416,32.9592621 262.263621,32.3888889 C263.486826,31.8185157 264.516341,31.0240792 265.352197,30.0055556 C266.188054,28.9870319 266.820033,27.7851921 267.248155,26.4 C267.676277,25.0148079 267.890334,23.5074156 267.890334,21.8777778 Z" id="ound" fill="#FFFFFF"></path>
            <path d="M7.17184081,63.1444444 L7.17184081,63.8472222 L0,63.8472222 L0,53 L7.03537872,53 L7.03537872,53.7027778 L0.773285161,53.7027778 L0.773285161,57.9652778 L6.2469311,57.9652778 L6.2469311,58.6375 L0.773285161,58.6375 L0.773285161,63.1444444 L7.17184081,63.1444444 Z M10.5682309,63.8472222 L7.27797839,55.9027778 L8.06642601,55.9027778 L10.9776172,63.0833333 L13.9039709,55.9027778 L14.6469311,55.9027778 L11.3566786,63.8472222 L10.5682309,63.8472222 Z M18.7862815,64 C18.2303221,64 17.7148038,63.8905104 17.2397112,63.6715278 C16.7646186,63.4525452 16.3527093,63.1520852 16.0039712,62.7701389 C15.655233,62.3881925 15.3823115,61.9476877 15.1851986,61.4486111 C14.9880857,60.9495345 14.8895308,60.4148177 14.8895308,59.8444444 C14.8895308,59.2842565 14.9880857,58.7571784 15.1851986,58.2631944 C15.3823115,57.7692105 15.6527059,57.3363445 15.9963899,56.9645833 C16.3400739,56.5928222 16.7469291,56.3000011 17.2169675,56.0861111 C17.6870059,55.8722212 18.1949431,55.7652778 18.7407941,55.7652778 C19.2967536,55.7652778 19.8122718,55.8747674 20.2873645,56.09375 C20.7624571,56.3127326 21.1718392,56.6081 21.5155232,56.9798611 C21.8592072,57.3516222 22.1270746,57.7844883 22.3191333,58.2784722 C22.511192,58.7724562 22.6072199,59.2944417 22.6072199,59.8444444 L22.6072199,60.0354167 C22.6072199,60.1118059 22.6021658,60.1601851 22.5920575,60.1805556 L15.6779784,60.1805556 C15.7083035,60.6388912 15.8144396,61.0641184 15.9963899,61.45625 C16.1783403,61.8483816 16.4083019,62.1870356 16.6862816,62.4722222 C16.9642613,62.7574088 17.2851967,62.9814807 17.6490974,63.1444444 C18.0129982,63.3074082 18.4021639,63.3888889 18.8166064,63.3888889 C19.0895319,63.3888889 19.3573993,63.3506948 19.6202165,63.2743056 C19.8830337,63.1979163 20.1281575,63.0935192 20.3555955,62.9611111 C20.5830334,62.828703 20.7851975,62.668288 20.9620937,62.4798611 C21.1389898,62.2914342 21.2779776,62.0851863 21.3790611,61.8611111 L22.0462091,62.0444444 C21.9350172,62.3296311 21.770759,62.591897 21.5534294,62.83125 C21.3360998,63.070603 21.0833947,63.276851 20.7953067,63.45 C20.5072186,63.623149 20.1913373,63.7581014 19.8476533,63.8548611 C19.5039693,63.9516209 19.1501822,64 18.7862815,64 Z M21.8794221,59.5694444 C21.8490971,59.1009236 21.745488,58.6731501 21.5685918,58.2861111 C21.3916956,57.8990721 21.1642611,57.5655107 20.8862814,57.2854167 C20.6083017,57.0053227 20.2873663,56.7863434 19.9234656,56.6284722 C19.5595648,56.4706011 19.1703991,56.3916667 18.7559566,56.3916667 C18.3415141,56.3916667 17.9523483,56.4706011 17.5884476,56.6284722 C17.2245469,56.7863434 16.9036115,57.0053227 16.6256318,57.2854167 C16.3476521,57.5655107 16.1252716,57.9016184 15.9584838,58.29375 C15.791696,58.6858816 15.693141,59.1111088 15.6628159,59.5694444 L21.8794221,59.5694444 Z M30.2794221,63.8472222 L29.5212994,63.8472222 L29.5212994,59.4166667 C29.5212994,58.3879578 29.3772576,57.6393542 29.0891695,57.1708333 C28.8010814,56.7023125 28.3436853,56.4680556 27.7169674,56.4680556 C27.3833917,56.4680556 27.0523481,56.5291661 26.7238266,56.6513889 C26.3953052,56.7736117 26.0895321,56.9467581 25.8064982,57.1708333 C25.5234643,57.3949085 25.2758133,57.6571744 25.0635379,57.9576389 C24.8512625,58.2581034 24.6945854,58.5814797 24.5935018,58.9277778 L24.5935018,63.8472222 L23.8353791,63.8472222 L23.8353791,55.9027778 L24.5480145,55.9027778 L24.5480145,57.7972222 C24.7097481,57.4916651 24.9093851,57.2141216 25.1469314,56.9645833 C25.3844777,56.715045 25.6523451,56.5011583 25.9505415,56.3229167 C26.2487379,56.144675 26.5646192,56.0071764 26.8981949,55.9104167 C27.2317705,55.8136569 27.5754494,55.7652778 27.9292417,55.7652778 C28.7884518,55.7652778 29.3949439,56.068284 29.7487362,56.6743056 C30.1025286,57.2803271 30.2794221,58.1486055 30.2794221,59.2791667 L30.2794221,63.8472222 Z M35.571119,63.4652778 C35.5306856,63.4856483 35.4624553,63.5238423 35.3664259,63.5798611 C35.2703966,63.6358799 35.1490981,63.6893516 35.002527,63.7402778 C34.8559559,63.791204 34.6916976,63.8370368 34.5097472,63.8777778 C34.3277969,63.9185187 34.130687,63.9388889 33.9184115,63.9388889 C33.7061361,63.9388889 33.5064991,63.9083336 33.3194946,63.8472222 C33.1324901,63.7861108 32.9682318,63.6944451 32.8267148,63.5722222 C32.6851979,63.4499994 32.5740077,63.3023157 32.4931408,63.1291667 C32.412274,62.9560177 32.3718412,62.752316 32.3718412,62.5180556 L32.3718412,56.5291667 L31.2649821,56.5291667 L31.2649821,55.9027778 L32.3718412,55.9027778 L32.3718412,53.1833333 L33.1299639,53.1833333 L33.1299639,55.9027778 L34.9646209,55.9027778 L34.9646209,56.5291667 L33.1299639,56.5291667 L33.1299639,62.3347222 C33.1299639,62.6300941 33.2310459,62.8516196 33.433213,62.9993056 C33.6353801,63.1469915 33.8628146,63.2208333 34.1155234,63.2208333 C34.4288824,63.2208333 34.6992768,63.1673616 34.9267147,63.0604167 C35.1541527,62.9534717 35.2931405,62.8847224 35.3436822,62.8541667 L35.571119,63.4652778 Z M38.9675092,64 C38.361008,64 37.7797864,63.8981492 37.2238269,63.6944444 C36.6678675,63.4907397 36.1826738,63.1851872 35.7682313,62.7777778 L36.1472927,62.2583333 C36.5718435,62.6453723 37.0115503,62.9305546 37.4664262,63.1138889 C37.9213021,63.2972231 38.4216581,63.3888889 38.9675092,63.3888889 C39.6548772,63.3888889 40.2083012,63.2437515 40.6277979,62.9534722 C41.0472946,62.663193 41.2570397,62.2583359 41.2570397,61.7388889 C41.2570397,61.4944432 41.2039717,61.2881953 41.097834,61.1201389 C40.9916963,60.9520825 40.8324921,60.8094913 40.6202167,60.6923611 C40.4079413,60.5752309 40.145128,60.4708338 39.8317691,60.3791667 C39.5184101,60.2874995 39.1545148,60.1907413 38.7400724,60.0888889 C38.2953048,59.9870365 37.9086661,59.8851857 37.5801446,59.7833333 C37.2516231,59.681481 36.9812287,59.55926 36.7689533,59.4166667 C36.5566779,59.2740734 36.3974737,59.1009269 36.291336,58.8972222 C36.1851983,58.6935175 36.1321302,58.4337979 36.1321302,58.1180556 C36.1321302,57.7208313 36.2079418,57.3745385 36.3595671,57.0791667 C36.5111924,56.7837948 36.7209375,56.5393528 36.9888089,56.3458333 C37.2566803,56.1523138 37.5649804,56.0071764 37.9137186,55.9104167 C38.2624568,55.8136569 38.6339332,55.7652778 39.028159,55.7652778 C39.6447685,55.7652778 40.1906114,55.8696749 40.665704,56.0784722 C41.1407966,56.2872696 41.509746,56.554628 41.7725632,56.8805556 L41.3480145,57.2930556 C41.0851973,56.9874985 40.7440455,56.7583341 40.3245488,56.6055556 C39.9050522,56.452777 39.4577642,56.3763889 38.9826716,56.3763889 C38.6895294,56.3763889 38.4140809,56.4069441 38.1563179,56.4680556 C37.8985549,56.529167 37.6736474,56.6259253 37.4815887,56.7583333 C37.28953,56.8907414 37.1379069,57.0613415 37.026715,57.2701389 C36.9155232,57.4789362 36.859928,57.7259245 36.859928,58.0111111 C36.859928,58.2453715 36.8978338,58.4337956 36.9736465,58.5763889 C37.0494591,58.7189822 37.1707575,58.8412032 37.3375454,58.9430556 C37.5043332,59.0449079 37.7191325,59.1340274 37.9819497,59.2104167 C38.2447668,59.2868059 38.5581211,59.3708329 38.9220218,59.4625 C39.4173311,59.5847228 39.8570379,59.7018513 40.2411553,59.8138889 C40.6252727,59.9259265 40.9462081,60.0634251 41.2039712,60.2263889 C41.4617342,60.3893527 41.6588441,60.5828693 41.7953069,60.8069444 C41.9317696,61.0310196 42,61.316202 42,61.6625 C42,62.3754665 41.7245515,62.9432849 41.1736462,63.3659722 C40.622741,63.7886595 39.8873693,64 38.9675092,64 Z" id="Events" fill="#FFFFFF"></path>
            <polygon id="+" fill="#5DCE7C" points="58 57.3518519 58 58.6481481 54.1889251 58.6481481 54.1889251 63 52.8403909 63 52.8403909 58.6481481 49 58.6481481 49 57.3518519 52.8403909 57.3518519 52.8403909 53 54.1889251 53 54.1889251 57.3518519"></polygon>
            <path d="M77.6868888,63.8513514 L77.6868888,54.7243243 L73.468648,61.8445946 L72.9865633,61.8445946 L68.7683224,54.7243243 L68.7683224,63.8513514 L68,63.8513514 L68,53.2972973 L68.7683224,53.2972973 L73.2276056,60.8486486 L77.6868888,53.2972973 L78.4552113,53.2972973 L78.4552113,63.8513514 L77.6868888,63.8513514 Z M83.0199509,64 C81.3527331,64 80.5191367,62.8603718 80.5191367,60.5810811 L80.5191367,56.1216216 L81.272394,56.1216216 L81.272394,60.477027 C81.272394,62.3797392 81.9302321,63.3310811 83.2459281,63.3310811 C83.5773629,63.3310811 83.8987495,63.2740997 84.2100974,63.1601351 C84.5214453,63.0461706 84.8127019,62.8876136 85.0838759,62.6844595 C85.3550499,62.4813053 85.593579,62.2360375 85.7994703,61.9486486 C86.0053617,61.6612598 86.1685658,61.3441459 86.2890876,60.9972973 L86.2890876,56.1216216 L87.0423448,56.1216216 L87.0423448,62.8108108 C87.0423448,63.0585598 87.1477998,63.1824324 87.3587129,63.1824324 L87.3587129,63.8513514 C87.3084955,63.8612613 87.2633005,63.8662162 87.2231266,63.8662162 L87.1327357,63.8662162 C86.9318661,63.8662162 86.753597,63.8042799 86.597923,63.6804054 C86.4422491,63.5565309 86.3644133,63.3905416 86.3644133,63.1824324 L86.3644133,62.022973 C86.0229349,62.6473004 85.5534092,63.1328811 84.9558221,63.4797297 C84.358235,63.8265783 83.7129511,64 83.0199509,64 Z M91.4865633,64 C90.8839544,64 90.306463,63.9009019 89.7540715,63.7027027 C89.2016801,63.5045035 88.7196002,63.2072092 88.3078175,62.8108108 L88.6844462,62.3054054 C89.1062724,62.6819839 89.5431572,62.9594586 89.9951139,63.1378378 C90.4470705,63.3162171 90.9442153,63.4054054 91.4865633,63.4054054 C92.16952,63.4054054 92.7193923,63.2641906 93.1361968,62.9817568 C93.5530012,62.6993229 93.7614003,62.3054079 93.7614003,61.8 C93.7614003,61.562161 93.7086728,61.3614873 93.6032163,61.197973 C93.4977598,61.0344586 93.3395773,60.8957213 93.1286642,60.7817568 C92.9177511,60.6677922 92.6566245,60.5662167 92.3452766,60.477027 C92.0339287,60.3878374 91.6723688,60.2936942 91.2605861,60.1945946 C90.818673,60.095495 90.4345156,59.9963969 90.1081024,59.8972973 C89.7816893,59.7981977 89.5130302,59.67928 89.3021171,59.5405405 C89.091204,59.4018011 88.9330216,59.2333343 88.827565,59.0351351 C88.7221085,58.8369359 88.669381,58.5842358 88.669381,58.277027 C88.669381,57.8905386 88.744706,57.553605 88.8953582,57.2662162 C89.0460104,56.9788274 89.2544095,56.7409919 89.5205618,56.5527027 C89.786714,56.3644135 90.0930356,56.2231987 90.4395357,56.1290541 C90.7860357,56.0349094 91.1551281,55.9878378 91.5468239,55.9878378 C92.1594762,55.9878378 92.701816,56.0894134 93.1738596,56.2925676 C93.6459032,56.4957217 94.0124848,56.7558543 94.2736153,57.072973 L93.8517912,57.4743243 C93.5906607,57.1770255 93.2516983,56.9540548 92.8348939,56.8054054 C92.4180894,56.656756 91.973672,56.5824324 91.5016284,56.5824324 C91.2103675,56.5824324 90.9366868,56.6121619 90.680578,56.6716216 C90.4244692,56.7310814 90.2010051,56.8252246 90.010179,56.9540541 C89.8193529,57.0828835 89.6687029,57.2488729 89.5582246,57.452027 C89.4477463,57.6551812 89.392508,57.8954941 89.392508,58.172973 C89.392508,58.400902 89.4301705,58.5842335 89.5054966,58.722973 C89.5808227,58.8617124 89.7013427,58.9806301 89.8670601,59.0797297 C90.0327775,59.1788293 90.2461983,59.2655402 90.5073288,59.3398649 C90.7684593,59.4141896 91.0798026,59.4959455 91.4413679,59.5851351 C91.9334984,59.7040546 92.3703833,59.8180175 92.7520356,59.927027 C93.1336878,60.0360366 93.4525636,60.169819 93.7086723,60.3283784 C93.9647811,60.4869377 94.160626,60.6752241 94.296213,60.8932432 C94.4318,61.1112624 94.4995925,61.3887371 94.4995925,61.7256757 C94.4995925,62.4193728 94.2259117,62.9718448 93.678542,63.3831081 C93.1311723,63.7943714 92.4005201,64 91.4865633,64 Z M95.8102606,63.8513514 L95.8102606,56.1216216 L96.5635179,56.1216216 L96.5635179,63.8513514 L95.8102606,63.8513514 Z M95.8102606,54.3675676 L95.8102606,53 L96.5635179,53 L96.5635179,54.3675676 L95.8102606,54.3675676 Z M97.9495117,59.9567568 C97.9495117,59.411709 98.0449233,58.8963988 98.2357495,58.4108108 C98.4265756,57.9252228 98.6927239,57.5040558 99.0342022,57.1472973 C99.3756806,56.7905388 99.7824354,56.5081091 100.254479,56.3 C100.726523,56.0918909 101.243754,55.9878378 101.806189,55.9878378 C102.519276,55.9878378 103.146984,56.1463948 103.689332,56.4635135 C104.23168,56.7806322 104.638435,57.2216188 104.909609,57.7864865 L104.171417,58.0243243 C103.940417,57.5981961 103.611498,57.26374 103.18465,57.0209459 C102.757802,56.7781519 102.288276,56.6567568 101.776059,56.6567568 C101.344189,56.6567568 100.942456,56.7409901 100.570847,56.9094595 C100.199238,57.0779288 99.8753409,57.3108093 99.5991452,57.6081081 C99.3229495,57.9054069 99.104507,58.2547277 98.9438113,58.6560811 C98.7831156,59.0574344 98.702769,59.4909887 98.702769,59.9567568 C98.702769,60.4225249 98.7856265,60.861034 98.9513439,61.2722973 C99.1170613,61.6835606 99.3380146,62.0403138 99.6142103,62.3425676 C99.8904061,62.6448213 100.216814,62.8851342 100.593445,63.0635135 C100.970075,63.2418928 101.369298,63.3310811 101.791124,63.3310811 C102.062298,63.3310811 102.330957,63.2914418 102.597109,63.2121622 C102.863261,63.1328825 103.109323,63.0288295 103.335301,62.9 C103.56128,62.7711705 103.757125,62.6200459 103.922842,62.4466216 C104.08856,62.2731973 104.201547,62.0923433 104.261808,61.9040541 L105,62.1121622 C104.899565,62.3797311 104.746404,62.6299538 104.540513,62.8628378 C104.334622,63.0957219 104.091071,63.2963956 103.809853,63.4648649 C103.528636,63.6333342 103.217293,63.7646392 102.875814,63.8587838 C102.534336,63.9529284 102.18282,64 101.821254,64 C101.268863,64 100.756653,63.8934695 100.284609,63.6804054 C99.8125657,63.4673413 99.4033,63.1750019 99.0567999,62.8033784 C98.7102998,62.4317549 98.4391299,62.0031556 98.2432821,61.5175676 C98.0474342,61.0319796 97.9495117,60.5117145 97.9495117,59.9567568 Z" id="Music" fill="#FFFFFF"></path>
        </g>
    </g>
</svg>